PathFileType	4	(X/Y/Z)	 s06c0101.trc
DataRate	CameraRate	NumFrames	NumMarkers	Units	OrigDataRate	OrigDataStartFrame	OrigNumFrames
200	200	4	49	mm	200	1251	2000
Frame#	Time	racr			lacr			c7			jug			rlel			rdr			llel			ldr			s2			lic			ric			lasi			rasi			rpsi			lpsi			rgt			lgt			rth1			rth2			rth3			rth4			rlfc			rmfc			rsh1			rsh2			rsh3			rsh4			rlmal			rmmal			rcal			rtoe			rmt5			lth1			lth2			lth4			lth3			llfc			lmfc			llmal			lcal			lmt5			lsh1			lsh2			lsh3			lsh4			ltoe			SBIKE			LBIKE			RBIKE			
		X1	Y1	Z1	X2	Y2	Z2	X3	Y3	Z3	X4	Y4	Z4	X5	Y5	Z5	X6	Y6	Z6	X7	Y7	Z7	X8	Y8	Z8	X9	Y9	Z9	X10	Y10	Z10	X11	Y11	Z11	X12	Y12	Z12	X13	Y13	Z13	X14	Y14	Z14	X15	Y15	Z15	X16	Y16	Z16	X17	Y17	Z17	X18	Y18	Z18	X19	Y19	Z19	X20	Y20	Z20	X21	Y21	Z21	X22	Y22	Z22	X23	Y23	Z23	X24	Y24	Z24	X25	Y25	Z25	X26	Y26	Z26	X27	Y27	Z27	X28	Y28	Z28	X29	Y29	Z29	X30	Y30	Z30	X31	Y31	Z31	X32	Y32	Z32	X33	Y33	Z33	X34	Y34	Z34	X35	Y35	Z35	X36	Y36	Z36	X37	Y37	Z37	X38	Y38	Z38	X39	Y39	Z39	X40	Y40	Z40	X41	Y41	Z41	X42	Y42	Z42	X43	Y43	Z43	X44	Y44	Z44	X45	Y45	Z45	X46	Y46	Z46	X47	Y47	Z47	X48	Y48	Z48	X49	Y49	Z49	
1251	6.2550	512.109905	1263.201060	-69.296746	504.434649	1249.101664	-358.242173	506.587455	1326.944206	-219.435331	479.298137	1161.552902	-214.557400	520.783404	1030.233418	57.328499	713.096360	921.705918	-36.782926	469.597628	999.295336	-445.142306	694.882494	937.424734	-397.861037	-51.512976	1171.808841	-181.848735	98.346788	1158.283717	-361.525596	99.682832	1124.703337	-27.886051	115.530202	1108.880221	-324.625804	127.027830	1089.689767	-72.685183	-15.012790	1210.475099	-150.622512	-21.453673	1210.703640	-213.146813	63.285625	1028.778237	-12.503011	85.281117	1129.342670	-383.613713	141.356948	916.594615	-10.683600	200.262151	849.643686	-25.840212	217.590267	765.227907	-39.475436	229.981875	868.451271	-39.391731	240.957622	663.762900	-59.345999	223.908088	646.742175	-172.150231	200.735134	550.250970	-34.609231	187.041544	466.276356	-56.981604	136.319724	395.526887	-57.608138	206.611840	462.803699	-92.140395	95.470816	328.101740	-64.963623	128.922653	309.116117	-154.056942	34.724092	345.088650	-110.056519	209.650324	129.771960	-97.737092	126.710084	189.652380	-35.234889	157.146720	1047.753224	-400.479665	242.968343	1033.558061	-393.450208	256.742862	1063.126754	-374.747979	312.201598	976.412992	-395.039530	392.573667	890.488315	-366.639838	392.016353	870.259993	-248.233863	222.205535	547.035859	-376.652182	145.548646	516.951344	-330.828172	336.148071	470.691368	-406.123706	352.741673	789.385206	-391.424419	332.205813	705.567018	-378.718898	276.188769	639.005200	-389.001696	355.538970	695.482010	-348.369147	422.790623	472.136653	-348.335614	-204.172912	870.788276	-212.268225	-48.863384	84.311480	-419.542527	-50.404480	79.978728	-22.177132	
1252	6.2600	511.777696	1261.816084	-68.124280	504.404686	1249.633681	-357.259636	506.152838	1326.407548	-217.810023	479.457111	1160.878399	-213.932541	520.285258	1029.386000	59.389463	712.716464	921.555997	-36.035705	469.120949	999.629742	-444.564619	694.421721	937.486462	-397.609160	-50.195795	1169.970529	-182.368371	98.271174	1157.152593	-361.154921	98.794683	1124.104641	-26.560707	115.848509	1108.184354	-323.936571	126.435363	1089.191692	-71.259475	-16.179729	1210.246477	-150.410433	-21.907496	1209.835338	-213.038537	62.589259	1028.584310	-11.628439	84.808056	1126.906382	-383.512327	143.138376	918.093858	-11.089258	203.621836	852.230112	-26.876889	223.213220	768.436355	-39.846323	232.580861	871.897154	-40.452489	246.905275	667.158454	-60.325872	230.065717	650.286741	-172.788772	203.082500	554.267996	-35.128043	186.758034	470.947915	-57.253823	133.728143	401.703638	-57.934336	206.299813	466.715140	-92.346904	90.892365	335.541647	-65.069968	122.823578	315.445282	-153.812150	30.275786	353.696317	-110.147558	200.984483	135.006048	-97.597226	119.234850	196.489532	-35.243359	156.184938	1042.989348	-399.952782	241.604638	1026.796002	-392.609595	256.192417	1056.544630	-374.831281	309.597114	968.381097	-394.052510	388.274613	881.814650	-365.502151	388.174821	860.756299	-247.585101	226.013528	535.033802	-376.468737	150.145376	502.877116	-331.147921	342.554102	463.438732	-406.396737	350.088770	780.031370	-390.747624	331.687668	695.656469	-378.355198	277.244105	627.841759	-388.715326	355.404034	686.038735	-348.189878	429.121383	467.838894	-348.520184	-204.128106	870.691066	-212.232131	-48.874387	84.247553	-419.530795	-50.380280	79.854823	-22.162265	
1253	6.2650	511.342081	1260.487545	-67.043908	504.482047	1250.209602	-356.410469	505.769738	1325.938292	-216.194680	479.563295	1160.294942	-213.381764	520.183668	1028.546803	61.403413	712.562408	921.454419	-35.138764	468.847079	999.964258	-443.709418	694.024641	937.434770	-397.424175	-51.494903	1168.965609	-181.716736	98.197554	1155.612579	-360.839157	97.438597	1123.252660	-26.057710	116.189651	1107.072390	-323.332486	125.200950	1088.312212	-70.662183	-17.329838	1209.247023	-150.184290	-23.375452	1208.853009	-211.734652	62.215821	1028.308202	-10.657847	84.312853	1124.050196	-383.413314	145.227628	919.466857	-11.435446	207.290388	855.656264	-26.548897	228.702183	771.781843	-40.186128	235.464815	875.425622	-41.498479	252.954126	670.436910	-61.088291	235.693895	653.836280	-174.306010	205.432110	558.515219	-35.601160	186.736260	475.835840	-57.370019	131.573728	408.111944	-58.132808	206.143208	470.694801	-92.592413	86.744937	343.303558	-64.993210	118.043412	322.494943	-153.719982	26.213840	362.585078	-110.069273	192.894700	140.790516	-97.475923	112.231572	203.787962	-35.148739	155.315008	1038.039230	-399.511363	240.416343	1019.894682	-392.162696	255.628723	1049.791867	-374.945174	307.078843	960.067456	-393.238632	383.932544	872.439226	-364.736746	385.968910	850.402888	-247.372688	230.085533	523.224295	-376.260658	155.105532	488.882690	-330.912589	348.545458	455.714609	-406.582837	347.664993	770.012167	-390.404187	331.274737	685.380040	-377.836990	278.540852	616.231916	-388.247845	355.398870	676.143641	-347.777885	434.888888	462.607915	-348.669186	-204.073896	870.607855	-212.157218	-48.874771	84.179806	-419.537242	-50.385827	79.826333	-22.141710	
1254	6.2700	510.763470	1259.284526	-66.108519	504.579058	1250.958786	-355.521192	505.365988	1325.566735	-214.616814	479.560937	1159.830846	-212.902484	520.282236	1027.804678	63.356684	711.934514	921.266498	-34.147122	468.692661	1000.304012	-443.035057	693.607471	937.278876	-397.217159	-52.347878	1167.754880	-181.264089	98.172113	1153.628556	-360.644800	96.449329	1122.065840	-25.486062	116.455411	1105.425183	-322.916788	124.186919	1087.011158	-70.018972	-18.762094	1207.751948	-149.869979	-24.325511	1207.257194	-211.081162	62.172490	1027.928257	-9.473773	83.808831	1120.852427	-383.396776	147.529692	920.922599	-11.695967	210.857131	858.226537	-27.826171	234.607911	775.159984	-40.198873	238.526624	878.877326	-42.393238	258.825869	673.627388	-61.836487	241.811472	656.950486	-174.555613	208.337866	562.760972	-35.906077	187.049896	480.832486	-57.684949	129.981441	414.527798	-58.330137	206.252134	474.933860	-92.853114	82.879454	351.281969	-64.871822	113.690765	330.022725	-153.525330	23.024702	371.196931	-110.230013	185.250607	147.075544	-97.405255	105.737727	211.407183	-34.990468	154.537792	1032.884219	-399.152687	239.215718	1013.099483	-391.691615	255.259569	1042.981844	-375.203550	304.620535	952.028011	-392.572817	379.679673	863.023139	-364.644418	381.263293	838.697265	-248.348438	234.377527	511.637943	-375.960629	160.404130	475.409956	-330.114994	354.298338	447.567576	-406.582822	345.288653	759.653638	-390.001305	330.987693	674.692656	-377.063370	280.053465	604.357153	-387.526343	355.537977	666.158383	-347.234094	440.669204	456.389822	-348.818258	-204.007563	870.552019	-212.060553	-48.861786	84.148334	-419.503453	-50.410118	79.755275	-22.111622	
